HIERARCHY
ROOT root
{
	OFFSET 0.000000 0.000000 0.000000
	CHANNELS 6 Xposition Yposition Zposition Xrotation Yrotation Zrotation
	JOINT pelvis
	{
		OFFSET 0.000000 0.050100 0.916700
		CHANNELS 6 Xposition Yposition Zposition Xrotation Yrotation Zrotation
		JOINT spine_01
		{
			OFFSET 0.000000 -0.034500 0.133800
			CHANNELS 6 Xposition Yposition Zposition Xrotation Yrotation Zrotation
			JOINT spine_02
			{
				OFFSET -0.000000 -0.015200 0.123100
				CHANNELS 6 Xposition Yposition Zposition Xrotation Yrotation Zrotation
				JOINT spine_03
				{
					OFFSET -0.000000 0.004500 0.141200
					CHANNELS 6 Xposition Yposition Zposition Xrotation Yrotation Zrotation
					JOINT neck_01
					{
						OFFSET 0.000000 0.035467 0.161600
						CHANNELS 6 Xposition Yposition Zposition Xrotation Yrotation Zrotation
						JOINT head
						{
							OFFSET -0.000000 -0.045467 0.092300
							CHANNELS 6 Xposition Yposition Zposition Xrotation Yrotation Zrotation
							JOINT head_leaf
							{
								OFFSET -0.000000 -0.002685 0.082543
								CHANNELS 6 Xposition Yposition Zposition Xrotation Yrotation Zrotation
								End Site
								{
									OFFSET -0.000000 0.000000 0.082587
								}
							}
						}
					}
					JOINT clavicle_l
					{
						OFFSET 0.018800 -0.076300 0.143100
						CHANNELS 6 Xposition Yposition Zposition Xrotation Yrotation Zrotation
						JOINT upperarm_l
						{
							OFFSET 0.173100 0.136800 -0.017100
							CHANNELS 6 Xposition Yposition Zposition Xrotation Yrotation Zrotation
							JOINT lowerarm_l
							{
								OFFSET 0.274400 0.004700 0.000000
								CHANNELS 6 Xposition Yposition Zposition Xrotation Yrotation Zrotation
								JOINT hand_l
								{
									OFFSET 0.272600 -0.004700 -0.000000
									CHANNELS 6 Xposition Yposition Zposition Xrotation Yrotation Zrotation
									JOINT index_01_l
									{
										OFFSET 0.113505 -0.046028 -0.002000
										CHANNELS 6 Xposition Yposition Zposition Xrotation Yrotation Zrotation
										JOINT index_02_l
										{
											OFFSET 0.037675 -0.006459 -0.000000
											CHANNELS 6 Xposition Yposition Zposition Xrotation Yrotation Zrotation
											JOINT index_03_l
											{
												OFFSET 0.027202 -0.005757 0.000000
												CHANNELS 6 Xposition Yposition Zposition Xrotation Yrotation Zrotation
												JOINT index_04_leaf_l
												{
													OFFSET 0.023662 -0.004705 0.000000
													CHANNELS 6 Xposition Yposition Zposition Xrotation Yrotation Zrotation
													End Site
													{
														OFFSET 0.023793 -0.003991 0.000000
													}
												}
											}
										}
									}
									JOINT middle_01_l
									{
										OFFSET 0.118041 -0.020533 0.000400
										CHANNELS 6 Xposition Yposition Zposition Xrotation Yrotation Zrotation
										JOINT middle_02_l
										{
											OFFSET 0.041479 -0.001286 0.000000
											CHANNELS 6 Xposition Yposition Zposition Xrotation Yrotation Zrotation
											JOINT middle_03_l
											{
												OFFSET 0.033079 -0.003702 0.000000
												CHANNELS 6 Xposition Yposition Zposition Xrotation Yrotation Zrotation
												JOINT middle_04_leaf_l
												{
													OFFSET 0.032483 -0.002781 -0.000000
													CHANNELS 6 Xposition Yposition Zposition Xrotation Yrotation Zrotation
													End Site
													{
														OFFSET 0.032567 0.001515 0.000000
													}
												}
											}
										}
									}
									JOINT pinky_01_l
									{
										OFFSET 0.109890 0.035598 -0.001600
										CHANNELS 6 Xposition Yposition Zposition Xrotation Yrotation Zrotation
										JOINT pinky_02_l
										{
											OFFSET 0.035819 0.001057 0.000000
											CHANNELS 6 Xposition Yposition Zposition Xrotation Yrotation Zrotation
											JOINT pinky_03_l
											{
												OFFSET 0.025683 0.002448 -0.000000
												CHANNELS 6 Xposition Yposition Zposition Xrotation Yrotation Zrotation
												JOINT pinky_04_leaf_l
												{
													OFFSET 0.026731 0.002448 0.000000
													CHANNELS 6 Xposition Yposition Zposition Xrotation Yrotation Zrotation
													End Site
													{
														OFFSET 0.026782 0.001811 0.000000
													}
												}
											}
										}
									}
									JOINT ring_01_l
									{
										OFFSET 0.115267 0.008064 0.000100
										CHANNELS 6 Xposition Yposition Zposition Xrotation Yrotation Zrotation
										JOINT ring_02_l
										{
											OFFSET 0.036562 0.001400 -0.000000
											CHANNELS 6 Xposition Yposition Zposition Xrotation Yrotation Zrotation
											JOINT ring_03_l
											{
												OFFSET 0.033091 0.000552 0.000000
												CHANNELS 6 Xposition Yposition Zposition Xrotation Yrotation Zrotation
												JOINT ring_04_leaf_l
												{
													OFFSET 0.029610 0.000105 0.000000
													CHANNELS 6 Xposition Yposition Zposition Xrotation Yrotation Zrotation
													End Site
													{
														OFFSET 0.029589 0.001117 0.000000
													}
												}
											}
										}
									}
									JOINT thumb_01_l
									{
										OFFSET 0.027300 -0.033600 -0.022800
										CHANNELS 6 Xposition Yposition Zposition Xrotation Yrotation Zrotation
										JOINT thumb_02_l
										{
											OFFSET 0.035686 -0.025978 -0.023293
											CHANNELS 6 Xposition Yposition Zposition Xrotation Yrotation Zrotation
											JOINT thumb_03_l
											{
												OFFSET 0.032562 -0.021217 -0.020255
												CHANNELS 6 Xposition Yposition Zposition Xrotation Yrotation Zrotation
												JOINT thumb_04_leaf_l
												{
													OFFSET 0.022147 -0.013446 -0.013949
													CHANNELS 6 Xposition Yposition Zposition Xrotation Yrotation Zrotation
													End Site
													{
														OFFSET 0.023164 -0.015050 -0.010140
													}
												}
											}
										}
									}
								}
							}
						}
					}
					JOINT clavicle_r
					{
						OFFSET -0.018800 -0.076300 0.143100
						CHANNELS 6 Xposition Yposition Zposition Xrotation Yrotation Zrotation
						JOINT upperarm_r
						{
							OFFSET -0.173100 0.136800 -0.017100
							CHANNELS 6 Xposition Yposition Zposition Xrotation Yrotation Zrotation
							JOINT lowerarm_r
							{
								OFFSET -0.274400 0.004700 -0.000000
								CHANNELS 6 Xposition Yposition Zposition Xrotation Yrotation Zrotation
								JOINT hand_r
								{
									OFFSET -0.272600 -0.004700 -0.000000
									CHANNELS 6 Xposition Yposition Zposition Xrotation Yrotation Zrotation
									JOINT index_01_r
									{
										OFFSET -0.113505 -0.046028 -0.002000
										CHANNELS 6 Xposition Yposition Zposition Xrotation Yrotation Zrotation
										JOINT index_02_r
										{
											OFFSET -0.037675 -0.006459 0.000000
											CHANNELS 6 Xposition Yposition Zposition Xrotation Yrotation Zrotation
											JOINT index_03_r
											{
												OFFSET -0.027202 -0.005757 0.000000
												CHANNELS 6 Xposition Yposition Zposition Xrotation Yrotation Zrotation
												JOINT index_04_leaf_r
												{
													OFFSET -0.023662 -0.004705 0.000000
													CHANNELS 6 Xposition Yposition Zposition Xrotation Yrotation Zrotation
													End Site
													{
														OFFSET -0.023793 -0.003991 0.000000
													}
												}
											}
										}
									}
									JOINT middle_01_r
									{
										OFFSET -0.118041 -0.020533 0.000400
										CHANNELS 6 Xposition Yposition Zposition Xrotation Yrotation Zrotation
										JOINT middle_02_r
										{
											OFFSET -0.041479 -0.001286 0.000000
											CHANNELS 6 Xposition Yposition Zposition Xrotation Yrotation Zrotation
											JOINT middle_03_r
											{
												OFFSET -0.033079 -0.003702 0.000000
												CHANNELS 6 Xposition Yposition Zposition Xrotation Yrotation Zrotation
												JOINT middle_04_leaf_r
												{
													OFFSET -0.032483 -0.002781 -0.000000
													CHANNELS 6 Xposition Yposition Zposition Xrotation Yrotation Zrotation
													End Site
													{
														OFFSET -0.032567 0.001515 0.000000
													}
												}
											}
										}
									}
									JOINT pinky_01_r
									{
										OFFSET -0.109891 0.035598 -0.001600
										CHANNELS 6 Xposition Yposition Zposition Xrotation Yrotation Zrotation
										JOINT pinky_02_r
										{
											OFFSET -0.035819 0.001057 0.000000
											CHANNELS 6 Xposition Yposition Zposition Xrotation Yrotation Zrotation
											JOINT pinky_03_r
											{
												OFFSET -0.025683 0.002448 -0.000000
												CHANNELS 6 Xposition Yposition Zposition Xrotation Yrotation Zrotation
												JOINT pinky_04_leaf_r
												{
													OFFSET -0.026731 0.002448 0.000000
													CHANNELS 6 Xposition Yposition Zposition Xrotation Yrotation Zrotation
													End Site
													{
														OFFSET -0.026782 0.001811 0.000000
													}
												}
											}
										}
									}
									JOINT ring_01_r
									{
										OFFSET -0.115267 0.008064 0.000100
										CHANNELS 6 Xposition Yposition Zposition Xrotation Yrotation Zrotation
										JOINT ring_02_r
										{
											OFFSET -0.036562 0.001400 -0.000000
											CHANNELS 6 Xposition Yposition Zposition Xrotation Yrotation Zrotation
											JOINT ring_03_r
											{
												OFFSET -0.033090 0.000552 0.000000
												CHANNELS 6 Xposition Yposition Zposition Xrotation Yrotation Zrotation
												JOINT ring_04_leaf_r
												{
													OFFSET -0.029610 0.000105 0.000001
													CHANNELS 6 Xposition Yposition Zposition Xrotation Yrotation Zrotation
													End Site
													{
														OFFSET -0.029589 0.001117 0.000000
													}
												}
											}
										}
									}
									JOINT thumb_01_r
									{
										OFFSET -0.027300 -0.033600 -0.022800
										CHANNELS 6 Xposition Yposition Zposition Xrotation Yrotation Zrotation
										JOINT thumb_02_r
										{
											OFFSET -0.035686 -0.025978 -0.023293
											CHANNELS 6 Xposition Yposition Zposition Xrotation Yrotation Zrotation
											JOINT thumb_03_r
											{
												OFFSET -0.032563 -0.021217 -0.020255
												CHANNELS 6 Xposition Yposition Zposition Xrotation Yrotation Zrotation
												JOINT thumb_04_leaf_r
												{
													OFFSET -0.022147 -0.013446 -0.013949
													CHANNELS 6 Xposition Yposition Zposition Xrotation Yrotation Zrotation
													End Site
													{
														OFFSET -0.023164 -0.015050 -0.010140
													}
												}
											}
										}
									}
								}
							}
						}
					}
				}
			}
		}
		JOINT thigh_l
		{
			OFFSET 0.089000 -0.051500 0.015400
			CHANNELS 6 Xposition Yposition Zposition Xrotation Yrotation Zrotation
			JOINT calf_l
			{
				OFFSET 0.000000 0.002800 -0.400300
				CHANNELS 6 Xposition Yposition Zposition Xrotation Yrotation Zrotation
				JOINT foot_l
				{
					OFFSET 0.000000 0.034400 -0.428100
					CHANNELS 6 Xposition Yposition Zposition Xrotation Yrotation Zrotation
					JOINT ball_l
					{
						OFFSET 0.000000 -0.149000 -0.088500
						CHANNELS 6 Xposition Yposition Zposition Xrotation Yrotation Zrotation
						JOINT ball_leaf_l
						{
							OFFSET -0.000000 -0.078900 -0.000000
							CHANNELS 6 Xposition Yposition Zposition Xrotation Yrotation Zrotation
							End Site
							{
								OFFSET 0.000000 -0.078900 -0.000000
							}
						}
					}
				}
			}
		}
		JOINT thigh_r
		{
			OFFSET -0.089000 -0.051500 0.015400
			CHANNELS 6 Xposition Yposition Zposition Xrotation Yrotation Zrotation
			JOINT calf_r
			{
				OFFSET -0.000000 0.002800 -0.400300
				CHANNELS 6 Xposition Yposition Zposition Xrotation Yrotation Zrotation
				JOINT foot_r
				{
					OFFSET 0.000000 0.034400 -0.428100
					CHANNELS 6 Xposition Yposition Zposition Xrotation Yrotation Zrotation
					JOINT ball_r
					{
						OFFSET -0.000000 -0.149000 -0.088500
						CHANNELS 6 Xposition Yposition Zposition Xrotation Yrotation Zrotation
						JOINT ball_leaf_r
						{
							OFFSET 0.000000 -0.078900 -0.000000
							CHANNELS 6 Xposition Yposition Zposition Xrotation Yrotation Zrotation
							End Site
							{
								OFFSET 0.000000 -0.078900 -0.000000
							}
						}
					}
				}
			}
		}
	}
}
MOTION
Frames: 3
Frame Time: 0.041667
0.000000 0.000000 0.000000 -0.000000 0.000000 -0.000000 0.002794 0.331499 0.541539 0.000010 0.000000 0.000000 -0.000000 -0.034500 0.133800 0.000000 -0.000000 0.000000 0.000000 -0.015200 0.123100 9.794517 -0.102607 0.027634 -0.000000 0.004500 0.141200 9.794576 -0.085864 0.076250 0.000000 0.035467 0.161600 -9.794490 0.110734 0.004385 0.000000 -0.045467 0.092300 -0.000003 -0.000000 -0.000000 0.000000 -0.002685 0.082543 -0.000000 0.000000 -0.000000 0.018800 -0.076300 0.143100 -2.367509 1.384158 -6.167384 0.173100 0.136800 -0.017100 12.674726 27.938284 -50.080764 0.274400 0.004700 -0.000000 -13.265341 -0.225235 -83.558144 0.272600 -0.004700 0.000000 -68.443523 17.379131 3.257953 0.113505 -0.046028 -0.002000 0.000008 -0.000016 -0.000031 0.037675 -0.006459 -0.000000 -0.000017 -0.000001 0.000025 0.027202 -0.005757 -0.000000 0.000001 0.000008 0.000044 0.023662 -0.004706 0.000000 -0.000001 0.000001 -0.000003 0.118040 -0.020533 0.000401 -0.700347 12.216817 10.088097 0.041479 -0.001286 -0.000000 1.632202 28.320872 -4.265845 0.033078 -0.003702 0.000000 -0.000004 0.000022 -0.000035 0.032483 -0.002781 -0.000000 0.000001 0.000001 -0.000007 0.109890 0.035598 -0.001600 -1.535003 25.475827 3.401847 0.035819 0.001057 0.000000 -5.984769 24.408750 -0.254355 0.025683 0.002448 0.000000 -2.095763 14.330613 -0.339732 0.026731 0.002448 0.000000 0.000001 -0.000001 -0.000005 0.115267 0.008064 0.000100 -3.722800 25.718053 11.819513 0.036562 0.001400 0.000000 -0.514139 24.178660 -3.810827 0.033090 0.000552 0.000000 -1.874298 16.655843 2.464517 0.029610 0.000105 -0.000000 -0.000001 -0.000002 0.000001 0.027300 -0.033600 -0.022800 0.095561 -0.161837 0.326619 0.035686 -0.025978 -0.023293 2.389490 -1.741269 3.318939 0.032563 -0.021217 -0.020255 7.972589 -4.941017 10.468777 0.022147 -0.013446 -0.013949 0.000004 0.000009 0.000014 -0.018800 -0.076300 0.143100 -1.755339 -1.720531 -5.728488 -0.173100 0.136800 -0.017100 13.260764 -20.374700 67.757164 -0.274400 0.004700 0.000000 -13.997512 0.237386 64.645814 -0.272600 -0.004700 0.000000 -57.414843 7.232978 11.955593 -0.113505 -0.046028 -0.002000 5.790519 -30.551119 1.526285 -0.037675 -0.006459 -0.000000 6.010651 -26.112462 1.381860 -0.027201 -0.005757 -0.000000 2.952210 -14.519908 0.376118 -0.023662 -0.004705 0.000000 -0.000001 0.000001 0.000000 -0.118041 -0.020533 0.000401 -1.148023 -31.566908 -7.610905 -0.041479 -0.001286 0.000000 4.601783 -44.957155 6.077720 -0.033079 -0.003702 0.000000 1.292001 -14.755459 0.167236 -0.032483 -0.002781 -0.000000 0.000001 0.000010 -0.000001 -0.109890 0.035598 -0.001600 -0.787030 -46.574233 1.552491 -0.035819 0.001057 0.000000 -7.808877 -34.330686 -0.439843 -0.025683 0.002448 0.000000 -3.111266 -26.327357 -0.163478 -0.026731 0.002448 0.000000 0.000002 0.000005 -0.000000 -0.115267 0.008064 0.000100 -6.565668 -45.052129 -11.362470 -0.036562 0.001400 -0.000000 -0.900982 -34.282475 3.285479 -0.033091 0.000552 0.000000 -2.027764 -28.267978 -2.186060 -0.029609 0.000105 0.000000 -0.000000 0.000002 0.000000 -0.027300 -0.033600 -0.022800 3.373228 -1.816809 -3.275766 -0.035686 -0.025978 -0.023293 7.689646 1.148061 -10.685128 -0.032563 -0.021217 -0.020255 22.450719 -3.342194 -37.209450 -0.022147 -0.013446 -0.013949 0.000011 -0.000003 0.000010 0.089000 -0.051500 0.015400 -86.822728 -10.044055 -9.637954 -0.000000 0.002800 -0.400300 80.377823 10.768742 1.877309 -0.000000 0.034400 -0.428100 6.321529 -0.731923 -10.161435 0.000000 -0.149000 -0.088500 -0.000000 0.000002 -0.000005 -0.000000 -0.078900 -0.000000 0.000000 0.000000 -0.000000 -0.089000 -0.051500 0.015400 -86.598411 10.452951 9.991462 0.000000 0.002800 -0.400300 79.258840 -6.106303 -1.214309 0.000000 0.034400 -0.428100 7.329017 -4.380004 7.020810 -0.000000 -0.149000 -0.088500 0.000000 0.000003 -0.000000 -0.000000 -0.078900 -0.000000 0.000000 0.000000 0.000000 
0.000000 0.000000 0.000000 -0.000000 0.000000 -0.000000 0.002794 0.331499 0.541539 0.000010 0.000000 0.000000 -0.000000 -0.034500 0.133800 0.000000 -0.000000 0.000000 0.000000 -0.015200 0.123100 9.701480 -0.126603 0.031443 -0.000000 0.004500 0.141200 9.701535 -0.108032 0.086691 -0.000000 0.035467 0.161600 -9.701431 0.134519 0.009918 -0.000000 -0.045467 0.092300 -0.000000 0.000000 0.000000 -0.000000 -0.002685 0.082543 -0.000000 -0.000000 0.000000 0.018800 -0.076300 0.143100 -2.367509 1.384157 -6.167378 0.173100 0.136800 -0.017100 12.461834 27.502163 -50.050441 0.274400 0.004700 -0.000000 -13.606768 -0.230885 -81.625774 0.272600 -0.004700 -0.000000 -67.237420 15.094581 2.323232 0.113505 -0.046028 -0.002000 0.000009 -0.000021 -0.000033 0.037675 -0.006459 -0.000000 -0.000016 -0.000001 0.000024 0.027202 -0.005757 0.000000 0.000000 0.000007 0.000045 0.023662 -0.004706 0.000000 0.000001 -0.000000 0.000003 0.118040 -0.020533 0.000400 -0.700352 12.216765 10.088060 0.041479 -0.001286 -0.000000 1.632198 28.320961 -4.265849 0.033078 -0.003702 0.000000 0.000003 -0.000000 -0.000009 0.032483 -0.002781 0.000000 -0.000001 -0.000000 -0.000002 0.109890 0.035598 -0.001600 -1.535009 25.475887 3.401827 0.035819 0.001057 0.000000 -5.984785 24.408716 -0.254366 0.025683 0.002448 0.000000 -2.095775 14.330613 -0.339687 0.026731 0.002447 -0.000000 -0.000001 -0.000001 -0.000003 0.115267 0.008064 0.000100 -3.722814 25.718051 11.819500 0.036562 0.001400 0.000000 -0.514154 24.178675 -3.810824 0.033090 0.000552 0.000000 -1.874308 16.655874 2.464481 0.029609 0.000105 -0.000000 0.000001 0.000001 0.000003 0.027300 -0.033600 -0.022800 0.187074 -0.330711 0.654268 0.035686 -0.025978 -0.023293 2.390789 -1.742174 3.318079 0.032563 -0.021217 -0.020255 7.972590 -4.941016 10.468779 0.022147 -0.013446 -0.013949 0.000003 0.000003 0.000015 -0.018800 -0.076300 0.143100 -1.755339 -1.720531 -5.728486 -0.173100 0.136800 -0.017100 13.274622 -20.340577 67.901663 -0.274400 0.004700 -0.000000 -14.020168 0.237750 64.457964 -0.272600 -0.004700 0.000000 -57.460872 7.194651 11.947223 -0.113505 -0.046028 -0.002000 5.790537 -30.551105 1.526356 -0.037675 -0.006459 0.000000 6.010609 -26.112506 1.381794 -0.027202 -0.005757 -0.000000 2.952217 -14.519925 0.376124 -0.023662 -0.004705 0.000000 -0.000002 0.000000 0.000000 -0.118041 -0.020533 0.000400 -1.148039 -31.566921 -7.610940 -0.041479 -0.001286 0.000000 4.601808 -44.957125 6.077741 -0.033079 -0.003702 0.000000 1.292005 -14.755486 0.167220 -0.032483 -0.002781 -0.000000 -0.000001 0.000011 0.000000 -0.109891 0.035598 -0.001600 -0.787000 -46.574216 1.552561 -0.035819 0.001057 0.000000 -7.808926 -34.330689 -0.439855 -0.025683 0.002448 0.000000 -3.111278 -26.327321 -0.163542 -0.026731 0.002448 0.000000 -0.000001 -0.000002 0.000002 -0.115267 0.008064 0.000101 -6.565692 -45.052150 -11.362523 -0.036562 0.001400 0.000000 -0.900955 -34.282465 3.285422 -0.033091 0.000552 0.000000 -2.027715 -28.267960 -2.185913 -0.029610 0.000105 0.000000 0.000001 0.000001 0.000000 -0.027300 -0.033600 -0.022800 3.373262 -1.816800 -3.275805 -0.035686 -0.025978 -0.023293 7.689597 1.148078 -10.685063 -0.032563 -0.021217 -0.020255 22.450721 -3.342199 -37.209436 -0.022147 -0.013447 -0.013949 0.000013 -0.000006 0.000017 0.089000 -0.051500 0.015400 -86.822728 -10.044055 -9.637954 -0.000000 0.002800 -0.400300 80.377823 10.768742 1.877309 -0.000000 0.034400 -0.428100 6.321529 -0.731923 -10.161435 0.000000 -0.149000 -0.088500 -0.000000 0.000002 -0.000005 -0.000000 -0.078900 -0.000000 0.000000 0.000000 -0.000000 -0.089000 -0.051500 0.015400 -86.596683 10.427054 9.966393 0.000000 0.002800 -0.400300 79.259899 -6.055233 -1.204191 0.000000 0.034400 -0.428100 7.326880 -4.405714 6.992859 -0.000000 -0.149000 -0.088500 -0.000000 0.000002 -0.000000 -0.000000 -0.078900 -0.000000 0.000000 -0.000000 -0.000000 
0.000000 0.000000 0.000000 -0.000000 0.000000 -0.000000 0.002794 0.331499 0.541539 0.000010 0.000000 0.000000 -0.000000 -0.034500 0.133800 0.000000 -0.000000 0.000000 0.000000 -0.015200 0.123100 9.616715 -0.152942 0.035580 -0.000000 0.004500 0.141200 9.616799 -0.132385 0.098067 0.000000 0.035467 0.161600 -9.616666 0.160617 0.016011 0.000000 -0.045467 0.092300 0.000003 -0.000000 0.000000 0.000000 -0.002685 0.082543 -0.000000 0.000000 -0.000000 0.018800 -0.076300 0.143100 -2.367508 1.384157 -6.167383 0.173100 0.136800 -0.017100 12.213004 26.960698 -50.064395 0.274400 0.004700 0.000000 -14.043288 -0.238167 -79.328242 0.272600 -0.004700 -0.000000 -65.869217 12.295263 1.291349 0.113505 -0.046028 -0.002000 0.000007 -0.000019 -0.000032 0.037675 -0.006459 -0.000000 -0.000018 -0.000003 0.000025 0.027201 -0.005757 -0.000000 0.000002 0.000005 0.000045 0.023662 -0.004706 0.000000 0.000002 -0.000004 0.000002 0.118041 -0.020533 0.000400 -0.700355 12.216789 10.088104 0.041479 -0.001286 -0.000000 1.632200 28.320917 -4.265873 0.033079 -0.003702 -0.000000 -0.000000 0.000010 -0.000009 0.032483 -0.002781 0.000000 0.000000 0.000000 -0.000004 0.109890 0.035598 -0.001600 -1.535011 25.475892 3.401831 0.035819 0.001057 0.000000 -5.984775 24.408735 -0.254337 0.025683 0.002448 -0.000000 -2.095767 14.330616 -0.339705 0.026731 0.002448 0.000000 -0.000004 -0.000003 -0.000001 0.115267 0.008064 0.000100 -3.722817 25.718092 11.819500 0.036562 0.001400 0.000000 -0.514151 24.178661 -3.810825 0.033091 0.000552 0.000000 -1.874306 16.655821 2.464574 0.029610 0.000105 -0.000000 -0.000000 -0.000002 0.000004 0.027300 -0.033600 -0.022800 0.274677 -0.506173 0.982502 0.035686 -0.025978 -0.023293 2.392898 -1.743628 3.316943 0.032563 -0.021217 -0.020255 7.972591 -4.941019 10.468772 0.022147 -0.013446 -0.013949 0.000004 0.000007 0.000016 -0.018800 -0.076300 0.143100 -1.755337 -1.720531 -5.728481 -0.173100 0.136800 -0.017100 13.379287 -20.459333 68.005298 -0.274400 0.004700 -0.000000 -14.001440 0.237472 64.275516 -0.272600 -0.004700 0.000000 -57.320327 7.097034 11.865573 -0.113505 -0.046028 -0.002000 5.790525 -30.551098 1.526354 -0.037675 -0.006459 0.000000 6.010618 -26.112522 1.381800 -0.027202 -0.005757 0.000000 2.952208 -14.519908 0.376007 -0.023662 -0.004705 0.000000 -0.000002 0.000000 -0.000002 -0.118041 -0.020533 0.000401 -1.148067 -31.566938 -7.610952 -0.041479 -0.001286 -0.000000 4.601811 -44.957128 6.077737 -0.033079 -0.003702 0.000000 1.292007 -14.755468 0.167218 -0.032483 -0.002781 -0.000000 -0.000000 0.000006 0.000001 -0.109891 0.035598 -0.001600 -0.787013 -46.574244 1.552550 -0.035819 0.001057 0.000000 -7.808915 -34.330655 -0.439851 -0.025683 0.002448 0.000000 -3.111280 -26.327328 -0.163545 -0.026731 0.002448 0.000000 -0.000001 0.000000 -0.000000 -0.115267 0.008064 0.000100 -6.565691 -45.052126 -11.362518 -0.036562 0.001400 -0.000000 -0.900955 -34.282485 3.285421 -0.033090 0.000552 0.000000 -2.027714 -28.267947 -2.185912 -0.029610 0.000105 0.000000 0.000001 -0.000002 0.000001 -0.027300 -0.033600 -0.022800 3.373263 -1.816808 -3.275803 -0.035686 -0.025978 -0.023293 7.689567 1.148104 -10.685015 -0.032563 -0.021217 -0.020255 22.450753 -3.342220 -37.209487 -0.022147 -0.013447 -0.013949 0.000018 -0.000005 0.000012 0.089000 -0.051500 0.015400 -86.822728 -10.044055 -9.637954 -0.000000 0.002800 -0.400300 80.377823 10.768742 1.877309 -0.000000 0.034400 -0.428100 6.321529 -0.731923 -10.161435 0.000000 -0.149000 -0.088500 -0.000000 0.000002 -0.000005 -0.000000 -0.078900 -0.000000 0.000000 0.000000 -0.000000 -0.089000 -0.051500 0.015400 -86.593890 10.384866 9.925569 0.000000 0.002800 -0.400300 79.261634 -5.972042 -1.187716 -0.000000 0.034400 -0.428100 7.323371 -4.447598 6.947329 -0.000000 -0.149000 -0.088500 0.000001 0.000002 -0.000001 -0.000000 -0.078900 -0.000000 -0.000000 -0.000000 -0.000000 
